<svg width="535" height="611" viewBox="0 0 535 611" fill="none" xmlns="http://www.w3.org/2000/svg">
<path id="profile" d="M267.323 305.5C351.658 305.5 420.009 237.149 420.009 152.814C420.009 68.4791 351.658 0.128418 267.323 0.128418C182.988 0.128418 114.637 68.4791 114.637 152.814C114.637 237.149 182.988 305.5 267.323 305.5ZM374.203 343.671H354.282C327.801 355.838 298.337 362.757 267.323 362.757C236.309 362.757 206.964 355.838 180.364 343.671H160.443C71.933 343.671 0.123047 415.481 0.123047 503.991V553.614C0.123047 585.225 25.7695 610.871 57.3802 610.871H477.266C508.877 610.871 534.523 585.225 534.523 553.614V503.991C534.523 415.481 462.713 343.671 374.203 343.671Z" fill="black"/>
</svg>
